<svg width="66" height="57" viewBox="0 0 66 57" fill="none" xmlns="http://www.w3.org/2000/svg">
<path d="M3.56588 26.9438C5.04041 26.9438 6.23576 25.7484 6.23576 24.2739C6.23576 22.7993 5.04041 21.604 3.56588 21.604C2.09134 21.604 0.895996 22.7993 0.895996 24.2739C0.895996 25.7484 2.09134 26.9438 3.56588 26.9438Z" fill="#FF3A5E"/>
<path d="M62.7021 26.9438C64.1766 26.9438 65.372 25.7484 65.372 24.2739C65.372 22.7993 64.1766 21.604 62.7021 21.604C61.2276 21.604 60.0322 22.7993 60.0322 24.2739C60.0322 25.7484 61.2276 26.9438 62.7021 26.9438Z" fill="#FF3A5E"/>
<path d="M3.58447 24.5165C3.58447 24.5165 5.15265 53.8638 32.9317 53.1917C60.7107 52.5196 62.727 24.5165 62.727 24.5165M6.67478 53.1917H58.4705" stroke="url(#paint0_linear_5_82)" stroke-width="1.5"/>
<path d="M61.3827 55.8019C62.9481 55.8019 64.2171 54.5329 64.2171 52.9675C64.2171 51.4021 62.9481 50.1331 61.3827 50.1331C59.8173 50.1331 58.5483 51.4021 58.5483 52.9675C58.5483 54.5329 59.8173 55.8019 61.3827 55.8019Z" stroke="#FF3A5E" stroke-width="1.5"/>
<path d="M3.58439 55.8019C5.14978 55.8019 6.41878 54.5329 6.41878 52.9675C6.41878 51.4021 5.14978 50.1331 3.58439 50.1331C2.019 50.1331 0.75 51.4021 0.75 52.9675C0.75 54.5329 2.019 55.8019 3.58439 55.8019Z" stroke="#FF3A5E" stroke-width="1.5"/>
<path d="M35.9898 50.1331H29.873V56.2499H35.9898V50.1331Z" fill="#110E1B" stroke="#FF3A5E" stroke-width="1.5"/>
<g clip-path="url(#clip0_5_82)">
<path d="M42.606 8.36459H23.3646V0.118267H42.606V8.36459Z" stroke="black" stroke-width="1.5" stroke-linecap="round" stroke-linejoin="round"/>
<path d="M26.1134 8.36456L17.867 20.734L32.9853 45.473L48.1035 20.734L39.8572 8.36456H26.1134Z" stroke="url(#paint1_linear_5_82)" stroke-width="1.5" stroke-linecap="round" stroke-linejoin="round"/>
<path d="M32.9853 45.473V24.6208" stroke="url(#paint2_linear_5_82)" stroke-width="1.5" stroke-linecap="round" stroke-linejoin="round"/>
<path d="M35.7341 17.9853C34.216 16.4672 31.7546 16.4672 30.2365 17.9853C28.7184 19.5034 28.7184 21.9647 30.2365 23.4828C31.7546 25.0009 34.216 25.0009 35.7341 23.4828C37.2522 21.9647 37.2522 19.5034 35.7341 17.9853Z" stroke="black" stroke-width="1.5" stroke-linecap="round" stroke-linejoin="round"/>
</g>
<defs>
<linearGradient id="paint0_linear_5_82" x1="33.1557" y1="24.5165" x2="3.55992" y2="58.4025" gradientUnits="userSpaceOnUse">
<stop stop-color="#FF3A5E"/>
<stop offset="1" stop-color="#FF3A5E" stop-opacity="0"/>
</linearGradient>
<linearGradient id="paint1_linear_5_82" x1="31.5" y1="19" x2="35.5" y2="68" gradientUnits="userSpaceOnUse">
<stop/>
<stop offset="0.561198" stop-opacity="0"/>
</linearGradient>
<linearGradient id="paint2_linear_5_82" x1="32.5" y1="25.5" x2="33.5" y2="44" gradientUnits="userSpaceOnUse">
<stop/>
<stop offset="1" stop-opacity="0"/>
</linearGradient>
<clipPath id="clip0_5_82">
<rect width="46.6482" height="46.6482" fill="white" transform="translate(32.9853 50.9706) rotate(-135)"/>
</clipPath>
</defs>
</svg>
