<svg width="32" height="15" viewBox="0 0 32 15" fill="none" xmlns="http://www.w3.org/2000/svg">
<path d="M0.443182 8.33523V7.80682C0.917614 7.80682 1.24858 7.70739 1.43608 7.50852C1.62642 7.30966 1.72159 6.97727 1.72159 6.51136V5.14773C1.72159 4.75568 1.75852 4.41619 1.83239 4.12926C1.90909 3.84233 2.03267 3.60511 2.20312 3.41761C2.37358 3.23011 2.60085 3.09091 2.88494 3C3.16903 2.90909 3.51989 2.86364 3.9375 2.86364V3.69886C3.60795 3.69886 3.34801 3.75 3.15767 3.85227C2.97017 3.95455 2.83665 4.11364 2.7571 4.32955C2.6804 4.54261 2.64205 4.81534 2.64205 5.14773V6.85227C2.64205 7.07386 2.61222 7.27557 2.55256 7.45739C2.49574 7.6392 2.3892 7.79545 2.23295 7.92614C2.0767 8.05682 1.85369 8.15767 1.56392 8.22869C1.27699 8.29972 0.903409 8.33523 0.443182 8.33523ZM3.9375 13.7727C3.51989 13.7727 3.16903 13.7273 2.88494 13.6364C2.60085 13.5455 2.37358 13.4062 2.20312 13.2188C2.03267 13.0312 1.90909 12.794 1.83239 12.5071C1.75852 12.2202 1.72159 11.8807 1.72159 11.4886V10.125C1.72159 9.65909 1.62642 9.3267 1.43608 9.12784C1.24858 8.92898 0.917614 8.82955 0.443182 8.82955V8.30114C0.903409 8.30114 1.27699 8.33665 1.56392 8.40767C1.85369 8.47869 2.0767 8.57955 2.23295 8.71023C2.3892 8.84091 2.49574 8.99716 2.55256 9.17898C2.61222 9.3608 2.64205 9.5625 2.64205 9.78409V11.4886C2.64205 11.821 2.6804 12.0938 2.7571 12.3068C2.83665 12.5199 2.97017 12.6776 3.15767 12.7798C3.34801 12.8849 3.60795 12.9375 3.9375 12.9375V13.7727ZM0.443182 8.82955V7.80682H1.44886V8.82955H0.443182ZM12.7681 7.63636C12.7681 8.55682 12.6019 9.35227 12.2695 10.0227C11.9371 10.6932 11.4812 11.2102 10.9016 11.5739C10.3221 11.9375 9.66016 12.1193 8.91584 12.1193C8.17152 12.1193 7.50959 11.9375 6.93004 11.5739C6.3505 11.2102 5.89453 10.6932 5.56214 10.0227C5.22976 9.35227 5.06357 8.55682 5.06357 7.63636C5.06357 6.71591 5.22976 5.92045 5.56214 5.25C5.89453 4.57955 6.3505 4.0625 6.93004 3.69886C7.50959 3.33523 8.17152 3.15341 8.91584 3.15341C9.66016 3.15341 10.3221 3.33523 10.9016 3.69886C11.4812 4.0625 11.9371 4.57955 12.2695 5.25C12.6019 5.92045 12.7681 6.71591 12.7681 7.63636ZM11.7454 7.63636C11.7454 6.88068 11.619 6.2429 11.3661 5.72301C11.1161 5.20312 10.7766 4.80966 10.3477 4.54261C9.92152 4.27557 9.44425 4.14205 8.91584 4.14205C8.38743 4.14205 7.90874 4.27557 7.47976 4.54261C7.05362 4.80966 6.71413 5.20312 6.46129 5.72301C6.21129 6.2429 6.08629 6.88068 6.08629 7.63636C6.08629 8.39205 6.21129 9.02983 6.46129 9.54972C6.71413 10.0696 7.05362 10.4631 7.47976 10.7301C7.90874 10.9972 8.38743 11.1307 8.91584 11.1307C9.44425 11.1307 9.92152 10.9972 10.3477 10.7301C10.7766 10.4631 11.1161 10.0696 11.3661 9.54972C11.619 9.02983 11.7454 8.39205 11.7454 7.63636ZM16.3349 12.1534C15.9201 12.1534 15.5437 12.0753 15.2056 11.919C14.8675 11.7599 14.5991 11.5312 14.4002 11.233C14.2013 10.9318 14.1019 10.5682 14.1019 10.142C14.1019 9.76705 14.1758 9.46307 14.3235 9.23011C14.4712 8.99432 14.6687 8.80966 14.9158 8.67614C15.163 8.54261 15.4357 8.44318 15.734 8.37784C16.0352 8.30966 16.3377 8.25568 16.6417 8.21591C17.0394 8.16477 17.3619 8.12642 17.609 8.10085C17.859 8.07244 18.0408 8.02557 18.1545 7.96023C18.271 7.89489 18.3292 7.78125 18.3292 7.61932V7.58523C18.3292 7.16477 18.2141 6.83807 17.984 6.60511C17.7567 6.37216 17.4116 6.25568 16.9485 6.25568C16.4684 6.25568 16.092 6.3608 15.8192 6.57102C15.5465 6.78125 15.3548 7.00568 15.244 7.24432L14.2894 6.90341C14.4599 6.50568 14.6871 6.19602 14.9712 5.97443C15.2582 5.75 15.5707 5.59375 15.9087 5.50568C16.2496 5.41477 16.5849 5.36932 16.9144 5.36932C17.1246 5.36932 17.3661 5.39489 17.6388 5.44602C17.9144 5.49432 18.18 5.59517 18.4357 5.74858C18.6942 5.90199 18.9087 6.13352 19.0792 6.44318C19.2496 6.75284 19.3349 7.16761 19.3349 7.6875V12H18.3292V11.1136H18.2781C18.2099 11.2557 18.0962 11.4077 17.9371 11.5696C17.7781 11.7315 17.5664 11.8693 17.3022 11.983C17.038 12.0966 16.7156 12.1534 16.3349 12.1534ZM16.4883 11.25C16.886 11.25 17.2212 11.1719 17.494 11.0156C17.7695 10.8594 17.9769 10.6577 18.1161 10.4105C18.2582 10.1634 18.3292 9.90341 18.3292 9.63068V8.71023C18.2866 8.76136 18.1928 8.80824 18.0479 8.85085C17.9059 8.89062 17.7411 8.92614 17.5536 8.95739C17.369 8.9858 17.1886 9.01136 17.0124 9.03409C16.8391 9.05398 16.6985 9.07102 16.5906 9.08523C16.3292 9.11932 16.0849 9.17472 15.8576 9.25142C15.6332 9.32528 15.4513 9.4375 15.3121 9.58807C15.1758 9.7358 15.1076 9.9375 15.1076 10.1932C15.1076 10.5426 15.2369 10.8068 15.4954 10.9858C15.7567 11.1619 16.0877 11.25 16.4883 11.25ZM22.108 9.61364L22.0909 8.36932H22.2955L25.1591 5.45455H26.4034L23.3523 8.53977H23.267L22.108 9.61364ZM21.1705 12V3.27273H22.1761V12H21.1705ZM25.3295 12L22.7727 8.76136L23.4886 8.0625L26.608 12H25.3295ZM30.6808 8.30114V8.82955C30.2063 8.82955 29.8739 8.92898 29.6836 9.12784C29.4961 9.3267 29.4023 9.65909 29.4023 10.125V11.4886C29.4023 11.8807 29.364 12.2202 29.2873 12.5071C29.2134 12.794 29.0913 13.0312 28.9208 13.2188C28.7504 13.4062 28.5231 13.5455 28.239 13.6364C27.9549 13.7273 27.604 13.7727 27.1864 13.7727V12.9375C27.516 12.9375 27.7745 12.8849 27.962 12.7798C28.1523 12.6776 28.2859 12.5199 28.3626 12.3068C28.4421 12.0938 28.4819 11.821 28.4819 11.4886V9.78409C28.4819 9.5625 28.5103 9.3608 28.5671 9.17898C28.6268 8.99716 28.7347 8.84091 28.891 8.71023C29.0472 8.57955 29.2688 8.47869 29.5558 8.40767C29.8455 8.33665 30.2205 8.30114 30.6808 8.30114ZM27.1864 2.86364C27.604 2.86364 27.9549 2.90909 28.239 3C28.5231 3.09091 28.7504 3.23011 28.9208 3.41761C29.0913 3.60511 29.2134 3.84233 29.2873 4.12926C29.364 4.41619 29.4023 4.75568 29.4023 5.14773V6.51136C29.4023 6.97727 29.4961 7.30966 29.6836 7.50852C29.8739 7.70739 30.2063 7.80682 30.6808 7.80682V8.33523C30.2205 8.33523 29.8455 8.29972 29.5558 8.22869C29.2688 8.15767 29.0472 8.05682 28.891 7.92614C28.7347 7.79545 28.6268 7.6392 28.5671 7.45739C28.5103 7.27557 28.4819 7.07386 28.4819 6.85227V5.14773C28.4819 4.81534 28.4421 4.54261 28.3626 4.32955C28.2859 4.11364 28.1523 3.95455 27.962 3.85227C27.7745 3.75 27.516 3.69886 27.1864 3.69886V2.86364ZM30.6808 7.80682V8.82955H29.6751V7.80682H30.6808Z" fill="#E51D36"/>
</svg>
